<svg width="100" height="100" viewBox="0 0 100 100" fill="none" xmlns="http://www.w3.org/2000/svg">
<rect width="100" height="100" transform="matrix(4.37114e-08 1 1 -4.37114e-08 0 4.37114e-06)" fill="url(#paint0_linear_130_619)"/>
<path d="M15.1592 71.675C14.8337 72.6824 15.0137 73.7831 15.6409 74.6381C16.2684 75.4933 17.268 76 18.333 76H36.6665C38.1145 76 39.3973 75.0699 39.8404 73.7L54.8405 27.325C55.166 26.3176 54.986 25.2169 54.3588 24.3619C53.7313 23.5067 52.7317 23 51.6667 23L33.3332 23C31.8852 23 30.6024 23.9301 30.1593 25.3L15.1592 71.675ZM35.7616 29.625L47.0931 29.625L34.2349 69.375H22.9034L35.7616 29.625Z" fill="white"/>
<path d="M45.1595 71.675C44.834 72.6824 45.014 73.7831 45.6412 74.6381C46.2687 75.4933 47.2683 76 48.3333 76H66.6668C68.1148 76 69.3976 75.0699 69.8407 73.7L84.8408 27.325C85.1663 26.3176 84.9863 25.2169 84.3591 24.3619C83.7316 23.5067 82.732 23 81.667 23L63.3335 23C61.8855 23 60.6027 23.9301 60.1596 25.3L45.1595 71.675ZM65.7619 29.625L77.0934 29.625L64.2352 69.375H52.9037L65.7619 29.625Z" fill="white"/>
<path d="M66.6668 72.6875L51.6667 26.3125L33.3332 26.3125L48.3333 72.6875H66.6668Z" fill="white"/>
<path d="M30.6411 24.3619C30.0139 25.2169 29.8339 26.3176 30.1593 27.325L45.1595 73.7C45.6026 75.0699 46.8853 76 48.3333 76H66.6668C67.7319 76 68.7314 75.4933 69.3589 74.6381C69.9861 73.7831 70.1661 72.6824 69.8407 71.675L54.8405 25.3C54.3974 23.9301 53.1147 23 51.6667 23L33.3332 23C32.2681 23 31.2685 23.5067 30.6411 24.3619ZM49.235 29.625L62.0932 69.375H50.7617L37.9035 29.625H49.235Z" fill="white"/>
<defs>
<linearGradient id="paint0_linear_130_619" x1="100" y1="50" x2="0" y2="50" gradientUnits="userSpaceOnUse">
<stop stop-color="#262626"/>
<stop offset="1" stop-color="#171717"/>
</linearGradient>
</defs>
</svg>
