<svg xmlns="http://www.w3.org/2000/svg" viewBox="0 0 100 100" role="img" aria-hidden="true">
  <g transform="translate(8.3333 37.8957) scale(0.465549)">
    <svg x="0" y="0" width="179" height="52" viewBox="0 0 179 52">

<path d="M78.9682 28.4986C78.7691 28.0451 78.496 27.7809 78.2055 27.7733V27.7709H78.2017H78.1979V27.7733C77.9036 27.7809 77.6216 28.0451 77.4313 28.4986L73.1885 38.5049H75.4107C75.4107 38.5049 77.4751 33.5906 78.1979 31.8909C78.9194 33.5906 80.9837 38.5049 80.9837 38.5049H83.2073L78.9682 28.4986Z" fill="#00030B"/>
<path d="M78.9682 28.4986C78.7691 28.0451 78.496 27.7809 78.2055 27.7733V27.7709H78.2017H78.1979V27.7733C77.9036 27.7809 77.6216 28.0451 77.4313 28.4986L73.1885 38.5049H75.4107C75.4107 38.5049 77.4751 33.5906 78.1979 31.8909C78.9194 33.5906 80.9837 38.5049 80.9837 38.5049H83.2073L78.9682 28.4986Z" fill="#00030B"/>
<path d="M77.4419 35.4974H78.9525V36.978H77.4419V35.4974Z" fill="#00030B"/>
<path d="M93.6624 30.5674H95.4974V28.7647H93.6624V30.5674Z" fill="#00030B"/>
<path d="M93.6624 38.5278H95.4974V31.2674H93.6624V38.5278Z" fill="#00030B"/>
<path d="M114.037 30.5674H115.878V28.7647H114.037V30.5674Z" fill="#00030B"/>
<path d="M114.037 38.5278H115.878V31.2674H114.037V38.5278Z" fill="#00030B"/>
<path d="M97.4731 37.0274C97.4731 38.3828 97.3753 38.9241 97.1111 39.2459C96.8818 39.5241 96.4146 39.653 95.9448 39.6893V41.3516C96.813 41.3516 97.9315 41.0923 98.4701 40.5224C99.0238 39.9323 99.3032 39.0255 99.3032 37.5448V31.264H97.4731V37.0274Z" fill="#00030B"/>
<path d="M97.4778 30.5708H99.3092V28.767H97.4778V30.5708Z" fill="#00030B"/>
<path d="M91.1083 37.234C90.4119 37.234 90.2477 36.6528 90.2477 36.0302V32.6381H91.8762V31.2526H90.2477V29.4939H88.4062V36.3397C88.4062 37.7791 89.2005 38.6997 90.6436 38.6997C91.1934 38.6997 91.6157 38.6446 92.0015 38.5305L91.945 37.0348C91.7534 37.1588 91.439 37.234 91.1083 37.234Z" fill="#00030B"/>
<path d="M86.3121 37.234C85.6132 37.234 85.4452 36.6528 85.4452 36.0302V32.6381H87.0811V31.2526H85.4452V29.4939H83.6113V36.3397C83.6113 37.7791 84.4067 38.6997 85.8474 38.6997C86.3985 38.6997 86.8219 38.6446 87.2064 38.5305L87.1501 37.0348C86.9585 37.1588 86.6415 37.234 86.3121 37.234Z" fill="#00030B"/>
<path d="M110.377 32.918H110.35V31.2746H108.723V38.5073H110.555V35.8606C110.555 34.8221 110.555 32.9104 112.046 32.9104C112.373 32.9104 112.703 32.9631 112.867 33.0609V31.1618C112.674 31.1129 112.481 31.1129 112.303 31.1129C111.21 31.1129 110.458 32.2454 110.377 32.918Z" fill="#00030B"/>
<path d="M116.545 31.2747H118.489L120.043 36.6311H120.073L121.492 31.2747H123.622L125.146 36.6311H125.177L126.639 31.2747H128.385L126.23 38.5039H124.068L122.541 32.9934H122.513L121.01 38.5039H118.926L116.545 31.2747Z" fill="#00030B"/>
<path d="M136.404 30.3614V38.5161H138.21V32.7252H139.796V31.3648H138.21V30.4703C138.21 29.9168 138.403 29.3755 139.009 29.3755C139.397 29.3755 139.627 29.5296 139.796 29.626L139.943 28.0828C139.587 28.0027 139.078 27.9326 138.613 27.9326C137.184 27.9326 136.404 28.9321 136.404 30.3614Z" fill="#00030B"/>
<path d="M132.612 36.6643C132.324 37.0539 131.893 37.3069 131.326 37.3069C130.672 37.3069 130.166 37.0388 130.166 36.4238C130.166 35.3127 131.379 35.17 132.199 35.17H132.993C132.993 35.7361 132.913 36.261 132.612 36.6643ZM134.661 35.0948V34.1616C134.661 32.022 133.773 31.1127 131.628 31.1127C130.851 31.1127 129.894 31.3204 129.177 31.66L129.239 33.2697C129.855 32.7975 130.632 32.4905 131.409 32.4905C132.488 32.4905 132.993 32.8839 132.993 34.0475H131.984C131.217 34.0475 130.313 34.1165 129.618 34.4735C128.923 34.8203 128.412 35.4567 128.412 36.5353C128.412 37.9107 129.633 38.686 130.875 38.686C131.708 38.686 132.623 38.2363 133.048 37.4347H133.079C133.088 37.6615 133.088 38.1425 133.158 38.5159H134.769C134.734 37.9521 134.704 37.4497 134.684 36.8985C134.673 36.3662 134.661 35.8176 134.661 35.0948Z" fill="#00030B"/>
<path d="M104.845 36.6643C104.557 37.0539 104.12 37.3069 103.561 37.3069C102.907 37.3069 102.401 37.0388 102.401 36.4238C102.401 35.3127 103.616 35.17 104.437 35.17H105.231C105.231 35.7361 105.147 36.261 104.845 36.6643ZM106.898 35.0948V34.1616C106.898 32.022 106.008 31.1127 103.862 31.1127C103.08 31.1127 102.128 31.3204 101.414 31.66L101.474 33.2697C102.083 32.7975 102.863 32.4905 103.644 32.4905C104.722 32.4905 105.231 32.8839 105.231 34.0475H104.218C103.451 34.0475 102.549 34.1165 101.851 34.4735C101.155 34.8203 100.65 35.4567 100.65 36.5353C100.65 37.9107 101.866 38.686 103.112 38.686C103.946 38.686 104.863 38.2363 105.281 37.4347H105.307C105.324 37.6615 105.324 38.1425 105.391 38.5159H107.006C106.966 37.9521 106.936 37.4497 106.922 36.8985C106.908 36.3662 106.898 35.8176 106.898 35.0948Z" fill="#00030B"/>
<path d="M144.902 36.6643C144.618 37.0539 144.179 37.3069 143.62 37.3069C142.969 37.3069 142.459 37.0388 142.459 36.4238C142.459 35.3127 143.675 35.17 144.499 35.17H145.287C145.287 35.7361 145.205 36.261 144.902 36.6643ZM146.955 35.0948V34.1616C146.955 32.022 146.063 31.1127 143.922 31.1127C143.142 31.1127 142.185 31.3204 141.476 31.66L141.533 33.2697C142.152 32.7975 142.92 32.4905 143.7 32.4905C144.78 32.4905 145.287 32.8839 145.287 34.0475H144.273C143.515 34.0475 142.612 34.1165 141.905 34.4735C141.219 34.8203 140.704 35.4567 140.704 36.5353C140.704 37.9107 141.923 38.686 143.17 38.686C144 38.686 144.922 38.2363 145.339 37.4347H145.371C145.38 37.6615 145.38 38.1425 145.45 38.5159H147.066C147.025 37.9521 146.996 37.4497 146.98 36.8985C146.966 36.3662 146.955 35.8176 146.955 35.0948Z" fill="#00030B"/>
<path d="M154.017 31.9012C155.653 31.9012 156.072 33.502 156.072 34.8938C156.072 36.2756 155.653 37.8764 154.017 37.8764C152.495 37.8764 151.957 36.1965 151.957 34.8938C151.957 33.586 152.447 31.9012 154.017 31.9012ZM151.957 37.3291H151.985C152.447 38.2422 153.159 38.6367 154.156 38.6367C156.066 38.6367 157.017 37.0084 157.017 34.8938C157.017 32.7167 156.195 31.1496 154.156 31.1496C152.79 31.1496 152.11 32.1694 151.985 32.5213H151.957V27.9491H151.101V38.4663H151.957V37.3291Z" fill="#EB5F4A"/>
<path d="M162.673 35.2978C162.673 36.0719 162.632 37.877 160.615 37.877C159.821 37.877 159.169 37.53 159.169 36.5806C159.169 35.0184 160.941 34.8619 162.429 34.8619H162.673V35.2978ZM163.535 33.8122C163.535 31.9457 162.806 31.1489 161.091 31.1489C160.476 31.1489 159.584 31.3695 159.047 31.6375V32.4943C159.685 32.0709 160.376 31.9019 161.091 31.9019C162.252 31.9019 162.673 32.522 162.673 33.7421V34.1027H162.509C160.714 34.1027 158.23 34.2168 158.23 36.6168C158.23 37.2657 158.547 38.6362 160.521 38.6362C161.379 38.6362 162.346 38.1727 162.724 37.3146H162.751V38.4659H163.605C163.535 37.9798 163.535 37.5412 163.535 36.9714V33.8122Z" fill="#EB5F4A"/>
<path d="M168.631 31.1496C167.185 31.1496 166.671 31.9463 166.387 32.5927H166.358V31.3162H165.522C165.576 31.8898 165.576 32.4487 165.576 33.0023V38.4663H166.438V34.5131C166.438 33.318 166.928 31.9012 168.492 31.9012C169.681 31.9012 170.142 32.7743 170.142 34.1196V38.4663H171.004V33.8954C171.004 32.3246 170.35 31.1496 168.631 31.1496Z" fill="#EB5F4A"/>
<path d="M174.833 34.4885L178.233 31.3168H177.118L174.017 34.248V27.9484H173.153V38.4658H174.017V34.7955L177.45 38.4658H178.636L174.833 34.4885Z" fill="#EB5F4A"/>
<path d="M139.54 22.1022V23.5753C139.566 23.5753 146.402 24.8668 146.402 20.6329V15.4945H144.4V20.7319C144.4 22.8576 139.54 22.1022 139.54 22.1022Z" fill="#00030B"/>
<path d="M178.384 10.9706H176.372V20.7788H178.384V10.9706Z" fill="#00030B"/>
<path d="M168.083 19.3242V15.5387H166.066V19.3267H162.621V19.1264C162.621 12.2643 152.417 15.7329 152.417 15.7329V17.3425C152.417 17.3425 160.428 14.5854 160.608 18.5125V19.3242H150.465L150.469 10.9703H148.439L148.428 19.4095C148.428 20.2576 148.921 20.7861 149.835 20.7861L173.405 20.7886C174.318 20.7886 174.811 20.26 174.811 19.4133L174.799 10.9703H172.77V19.3242H168.083Z" fill="#00030B"/>
<path d="M103.241 10.9731H101.254L101.248 19.4099C101.248 20.2566 101.736 20.7852 102.649 20.7852H113.958C114.873 20.7852 115.363 20.2566 115.363 19.4099V13.4008C114.453 13.3344 113.253 13.3695 112.45 13.3921C107.862 13.5374 109.146 18.3124 109.146 18.3124H113.523L113.526 19.3208H103.253L103.241 10.9731ZM113.51 16.9308L110.609 16.9344C110.473 15.6956 110.987 14.6434 113.51 14.9466V16.9308Z" fill="#00030B"/>
<path d="M87.0165 12.1969H84.5926L73.1735 16.4134V17.3128C76.6121 16.2693 84.7579 15.812 84.7579 19.8744H73.1445V20.8228H95.7851C96.702 20.8228 96.7071 20.7638 96.7071 19.9195V16.4234H95.7387V19.8744L90.4387 19.8807V16.4346H89.4679L89.4629 19.8744H85.7288C85.7288 16.0701 80.7357 15.3813 77.7544 15.7519L87.0165 12.1969Z" fill="#EB5F4A"/>
<path d="M135.603 18.6993C135.61 18.9449 135.592 19.3243 135.592 19.3243H135.581C135.209 19.367 131.371 19.4284 130.94 19.4308C129.078 19.4447 127.043 18.8109 127.043 15.8333H125.181C124.787 20.0936 128.372 20.8765 131.163 20.9178C132.886 20.9327 137.656 20.6998 137.656 20.6998L137.65 19.2355C137.65 17.2425 138.373 17.0034 139.755 17.0034V20.7925H141.766V15.5377C138.302 15.3247 135.603 15.4325 135.603 18.6993Z" fill="#00030B"/>
<path d="M116.138 22.2886V23.5752C119.296 24.2014 123.251 23.8432 123.233 20.6791V15.8488C122.333 15.7798 121.123 15.8162 120.327 15.8412C115.738 15.9866 117.025 20.7642 117.025 20.7642L121.455 20.7617C121.425 23.0114 116.907 22.3764 116.138 22.2886ZM121.385 19.38L118.479 19.3838C118.347 18.1474 118.861 17.0952 121.385 17.3982V19.38Z" fill="#00030B"/>
<path d="M96.7083 22.752H95.7312V21.7773H96.7083V22.752Z" fill="#EB5F4A"/>
<path d="M90.4441 15.4536H89.4683V14.4803H90.4441V15.4536Z" fill="#EB5F4A"/>
<path d="M160.701 23.7578H162.545V22.0029H160.701V23.7578Z" fill="#00030B"/>
<path d="M111.649 12.3999H113.485V10.6462H111.649V12.3999Z" fill="#00030B"/>
<path d="M135.81 23.7578H137.65V22.0016H135.81V23.7578Z" fill="#00030B"/>
<path d="M132.781 23.7578H134.62V22.0016H132.781V23.7578Z" fill="#00030B"/>
<path d="M167.656 14.4966H169.5V12.7366H167.656V14.4966Z" fill="#00030B"/>
<path d="M164.627 14.4966H166.468V12.7366H164.627V14.4966Z" fill="#00030B"/>
<path d="M58.4977 18.7657C57.2113 18.7657 56.0589 19.3407 55.2834 20.2477L48.3825 28.2745L39.9948 18.5176C39.4535 17.8888 38.6508 17.4893 37.7549 17.4893C36.8593 17.4893 36.0565 17.8888 35.5141 18.519L27.125 28.2785L18.7398 18.5176C18.1987 17.8888 17.3957 17.4893 16.5001 17.4893C15.6045 17.4893 14.8026 17.8888 14.2602 18.5176L0.916992 34.0293V0.538334H63.3781V18.7657H58.4977Z" fill="#F5B32F"/>
<path d="M63.3794 18.7654L50.6223 33.6042C50.0813 34.2332 49.2796 34.6327 48.384 34.6327C47.4832 34.6327 46.6765 34.2295 46.1354 33.5931L37.7551 23.8473L29.3673 33.6042C28.8262 34.2332 28.0233 34.6327 27.1289 34.6327C26.2282 34.6327 25.4214 34.2295 24.8804 33.5931L16.5014 23.8473L9.0255 32.5434C8.2502 33.4515 7.09645 34.0289 5.8087 34.0289H0.916992V51.4609H63.3794V18.7654Z" fill="#EB5F4A"/>
<path d="M58.4977 18.7654C57.2113 18.7654 56.0589 19.3404 55.2834 20.2474L48.3825 28.2743L39.9948 18.5174C39.4535 17.8886 38.6508 17.4891 37.7549 17.4891C36.8593 17.4891 36.0565 17.8886 35.5141 18.5187L27.125 28.2782L18.7398 18.5174C18.1987 17.8886 17.3957 17.4891 16.5001 17.4891C15.6045 17.4891 14.8026 17.8886 14.2602 18.5174L0.916992 34.029H5.80738C7.09512 34.029 8.24888 33.4516 9.02417 32.5434L16.5001 23.8474L24.8802 33.5931C25.4214 34.2295 26.2269 34.6328 27.1276 34.6328C28.0233 34.6328 28.826 34.2333 29.3673 33.6043L37.7549 23.8474L46.1341 33.5931C46.6751 34.2295 47.4819 34.6328 48.3825 34.6328C49.2783 34.6328 50.0811 34.2333 50.6223 33.6043L63.3781 18.7654H58.4977Z" fill="#00030B"/>
<path d="M18.2262 32.7139H14.7751V29.2628H18.2262V32.7139Z" fill="#00030B"/>
<mask id="mask0_5081_18365" style="mask-type:luminance" maskUnits="userSpaceOnUse" x="2" y="1" width="61" height="32">
<path d="M2.13184 1.75038V32.6221L14.2607 18.5223C14.8103 17.8969 15.6062 17.4989 16.4969 17.4989C17.4066 17.4989 18.2026 17.8969 18.7332 18.5223L27.1286 28.2822L35.5241 18.5223C36.0547 17.8969 36.8507 17.4989 37.7603 17.4989C38.651 17.4989 39.447 17.8969 39.9966 18.5223L48.392 28.2822L55.2903 20.2469C56.0673 19.3372 57.2044 18.7687 58.4931 18.7687H62.1696V1.75038H2.13184Z" fill="white"/>
</mask>
<g mask="url(#mask0_5081_18365)">
</g>
<mask id="mask1_5081_18365" style="mask-type:luminance" maskUnits="userSpaceOnUse" x="2" y="20" width="61" height="31">
<path d="M50.6283 33.6073C50.0787 34.2327 49.2827 34.6307 48.392 34.6307C47.4823 34.6307 46.6864 34.2327 46.1368 33.5884L37.7603 23.8474L29.3649 33.6073C28.8342 34.2327 28.0193 34.6307 27.1286 34.6307C26.2379 34.6307 25.423 34.2327 24.8734 33.5884L16.4969 23.8474L9.03012 32.5461C8.25311 33.4557 7.09708 34.0243 5.80839 34.0243H2.13184V50.2466H62.1696V20.1708L50.6283 33.6073Z" fill="white"/>
</mask>
<g mask="url(#mask1_5081_18365)">
</g>
<mask id="mask2_5081_18365" style="mask-type:luminance" maskUnits="userSpaceOnUse" x="48" y="19" width="14" height="15">
<path d="M58.4919 19.4697C57.4307 19.4697 56.4641 19.9435 55.8198 20.7016L51.1199 26.1595L48.3909 29.3623L50.0965 33.1526L51.5178 31.4849L52.5791 30.2341L61.8463 19.4697H58.4919Z" fill="white"/>
</mask>
<g mask="url(#mask2_5081_18365)">
</g>
<mask id="mask3_5081_18365" style="mask-type:luminance" maskUnits="userSpaceOnUse" x="15" y="29" width="3" height="4">
<path d="M17.9368 29.5519H15.0751H15.0562V32.4136H17.9368V29.5519Z" fill="white"/>
</mask>
<g mask="url(#mask3_5081_18365)">
</g>
<mask id="mask4_5081_18365" style="mask-type:luminance" maskUnits="userSpaceOnUse" x="5" y="18" width="21" height="16">
<path d="M16.4206 18.2002C15.7763 18.2191 15.1888 18.5223 14.7908 18.9772L5.86475 29.3625L7.57036 33.1338L16.4964 22.7674L23.281 30.6512L25.7257 27.7137L18.2021 18.9772C17.8041 18.5223 17.2166 18.2191 16.5722 18.2002H16.4206Z" fill="white"/>
</mask>
<g mask="url(#mask4_5081_18365)">
</g>
<mask id="mask5_5081_18365" style="mask-type:luminance" maskUnits="userSpaceOnUse" x="27" y="18" width="20" height="16">
<path d="M37.6836 18.2002C37.0392 18.2191 36.4517 18.5223 36.0538 18.9772L27.1277 29.3625L28.8333 33.1338L37.7594 22.7674L44.525 30.6512L46.9697 27.7137L39.465 18.9772C39.067 18.5223 38.4795 18.2191 37.8352 18.2002H37.6836Z" fill="white"/>
</mask>
<g mask="url(#mask5_5081_18365)">
</g>

    </svg>
  </g>
</svg>
