<svg xmlns="http://www.w3.org/2000/svg" viewBox="0 0 100 100" role="img" aria-hidden="true">
  <g transform="translate(8.3333 8.3333) scale(0.216450)">
    <svg x="0" y="0" width="385" height="385" viewBox="0 0 385 385">

<rect width="385" height="385" rx="32" fill="#2D317F"/>
<path d="M100 321L97.8532 334H82L83.8349 321H100Z" fill="#FADE17"/>
<path d="M114 321L112.435 334H96L97.5261 321.25L114 321Z" fill="#FCB72E"/>
<path d="M238 322.5L236.692 334H110L111.09 321L238 322.5Z" fill="#F18222"/>
<path d="M194.587 312.766C169.325 313.72 144.21 313.39 121.056 301.171C98.8636 289.429 83.7358 272.219 82.4042 246.35C79.963 199.016 88.3222 153.846 114.509 113.41C139.92 74.1842 177.906 55.4338 223.955 52.7185C247.849 51.2874 272.039 52.4616 295.859 52.3148C301.259 52.3148 303.922 52.7552 301.924 59.6536C297.893 73.2669 294.712 87.1737 291.605 101.044C290.31 106.731 287.425 108.639 281.618 108.383C266.158 108.126 250.66 108.383 235.162 108.383C223.077 108.403 211.175 111.315 200.467 116.873C189.759 122.431 180.56 130.469 173.652 140.306C155.411 164.444 145.28 193.659 144.691 223.821C143.988 246.644 153.272 256.038 176.204 256.588C199.136 257.138 221.181 256.918 243.669 256.588C251.289 256.588 254.544 257.615 251.954 266.128C248.256 278.971 244.964 292.107 241.709 305.134C241.601 306.38 241.232 307.59 240.624 308.686C240.016 309.781 239.183 310.739 238.18 311.496C237.176 312.253 236.024 312.793 234.797 313.081C233.57 313.37 232.296 313.4 231.057 313.169C218.925 312.509 206.756 312.766 194.587 312.766Z" fill="white"/>

    </svg>
  </g>
</svg>
