<svg xmlns="http://www.w3.org/2000/svg" viewBox="0 0 100 100" role="img" aria-hidden="true">
  <g transform="translate(8.3333 8.3333) scale(0.166667)">
    <svg x="0" y="0" width="500" height="500" viewBox="0 0 500 500">

  <defs>
    <style>
      .cls-1 {
        fill: #2452c1;
      }

      .cls-1, .cls-2 {
        stroke-width: 0px;
      }

      .cls-3 {
        fill: none;
        stroke: #dae1fc;
        stroke-miterlimit: 10;
        stroke-width: 1.2px;
      }

      .cls-2 {
        fill: #122a62;
      }
    </style>
  </defs>
  <rect class="cls-3" x="13.5" y="17.1" width="473.8" height="465.6"/>
  <circle class="cls-2" cx="250.3" cy="336.4" r="59" transform="translate(-164.6 275.5) rotate(-45)"/>
  <circle class="cls-2" cx="132.2" cy="336.4" r="17.7"/>
  <circle class="cls-2" cx="368.4" cy="336.4" r="17.7"/>
  <path class="cls-2" d="M480.4,194.8H20.3c-1.1,0-1.9.8-1.9,1.9v279.6c0,.3.3.8.5,1.4.3.3.8.5,1.4.5h460.1c1.1,0,1.9-1.1,1.9-1.9V196.7c0-1.1-.8-1.9-1.9-1.9ZM442.7,399.6c-21.3,0-38.8,17.2-38.8,38.8H96.8c0-1.4,0-2.7-.3-4.1-.5-4.6-1.9-9.3-4.4-13.4,0-1.1-.5-1.9-1.1-2.7-3.8-6-9-10.9-15.3-14.2l-.3-.3h-.3c-1.1-.5-2.2-1.1-3.3-1.1-2.7-1.6-5.7-2.2-9-2.5-1.6-.5-3.5-.5-5.2-.5v-126.4c14.2,0,26.8-7.6,33.6-19.1,3.5-5.7,5.5-12.6,5.5-19.9h307.2c0,7.1,1.9,13.9,5.2,19.7,6.8,11.7,19.4,19.4,33.6,19.4v126.4Z"/>
  <path class="cls-1" d="M342.2,84.8l-33.6,7.9-41.5,9.6c-3.8-2.7-6.8-6.8-9.3-11.7l-53.8,26.2-.3.3-104.6,24-64.7,14.7L309.5,21.7c1.1-.5,2.2,0,2.5.8l30.3,62.3Z"/>
  <path class="cls-1" d="M422.5,167.5h-77.5c-2.7-4.1-4.9-8.5-6-13.4l-6,1.4-51.9,12H105.2l209.7-48.3,39.6-9.3,50.2-11.5c1.1-.3,1.9.5,2.2,1.6l15.6,67.4Z"/>

    </svg>
  </g>
</svg>
