<svg xmlns="http://www.w3.org/2000/svg" viewBox="0 0 100 100" role="img" aria-hidden="true">
  <g transform="translate(8.3333 38.8583) scale(0.604627)">
    <svg x="0" y="0" width="137.82600000000002" height="36.85483870967742" viewBox="0 0 137.82600000000002 36.85483870967742">
<defs><style>.cls-1,.cls-2{stroke-width:0px;}.cls-2{fill:#00338e;}</style></defs><g id="_デザイン"><polygon points="24.37 0 36.56 12.19 36.56 0 24.37 0" class="cls-2"/><polygon points="12.19 0 0 0 36.56 36.56 36.56 24.37 12.19 0" class="cls-2"/><path d="m6.09,24.37C2.73,24.37,0,27.1,0,30.46s2.73,6.09,6.09,6.09,6.09-2.73,6.09-6.09-2.73-6.09-6.09-6.09Zm0,8.12c-1.12,0-2.03-.91-2.03-2.03s.91-2.03,2.03-2.03,2.03.91,2.03,2.03-.91,2.03-2.03,2.03Z" class="cls-2"/><path d="m157.13,22.99l.1,1.39c-1.52.32-3.82.77-5.16,1.02l-.39-1.6,2.11-.29v-4.42h-2.11v-1.48h2.11v-1.29h-1.48v-.53l-1.05-1.02c1.18-1.1,2.26-2.58,2.82-3.82l1.79.13-.1.18c.94.94,1.66,1.77,2.23,2.56l-1.37.95c-.42-.68-.97-1.39-1.61-2.15-.47.76-1.02,1.52-1.63,2.23h3.44v1.47h-1.39v1.29h1.81v1.48h-1.81v4.18l1.69-.27Zm-3.66-.35l-1.16.37c-.03-.79-.24-1.87-.6-2.77l1.11-.39c.37.97.6,2.02.65,2.79Zm2.9-2.92l1.18.37c-.23.76-.56,1.74-.94,2.65l-1-.37c.32-.92.6-1.94.76-2.65Zm9.81,4.65c0,1.23-.37,1.56-1.55,1.56-.29,0-.69,0-1-.02l-.27-1.5c.24.02.6.03.85.03.29,0,.39-.06.39-.27v-5.6h-5.45v7.35h-1.52v-8.76h.89v-5.81h6.81v5.81h.85v7.19Zm-5.03-.85v.69h-1.23v-4.81h3.89v4.11h-2.66Zm-1.11-6.34h1.1v-3.35h2.61v-1.03h-3.71v4.39Zm1.11,3.45v1.65h1.42v-1.65h-1.42Zm2.6-5.56h-1.27v2.11h1.27v-2.11Z" class="cls-1"/><path d="m183.38,24.1v1.42h-12.48v-1.42h5.16v-1.24h-3.94v-1.34h3.94v-1.03l-4.08.19-.31-1.37c.48,0,1.1-.02,1.76-.03.29-.45.56-.92.81-1.35h-2.71c-.08,2.76-.53,5.47-1.69,7.84l-1.55-.9c1.23-2.39,1.53-5.11,1.53-8v-5.4h12.45v4.11h-10.73v.97h11.4v1.39h-2.82c.98.76,1.76,1.52,2.35,2.26l-1.4.81-.61-.74-2.6.14v1.13h3.98v1.34h-3.98v1.24h5.52Zm-11.84-11.24v1.29h8.94v-1.29h-8.94Zm3.63,6.39l4.16-.13c-.32-.29-.68-.58-1.06-.87l.48-.32h-2.73l-.85,1.32Z" class="cls-1"/><path d="m189.59,13.58l1.94.4c-.69,3.9-2.14,8.05-4.11,10.77l-1.81-.97c2.02-2.61,3.44-6.58,3.98-10.21Zm6.31-.39c1.98,3.5,3.53,7.4,4.4,10.6l-2,.63c-.66-3.08-2.19-7.06-4.21-10.44l1.81-.79Zm1.61.86c-.32-.94-.66-1.66-1.19-2.47l1.08-.52c.55.86.87,1.53,1.23,2.48l-1.11.5Zm2.24-.47c-.32-.94-.68-1.66-1.21-2.47l1.08-.5c.55.86.9,1.52,1.24,2.47l-1.11.5Z" class="cls-1"/><path d="m211.15,16.5v8.94h-2v-7.55c-1.74,1.13-3.56,2.11-5.19,2.76l-1-1.69c3.71-1.23,8.98-4.92,11-7.5l1.5,1.19c-1.05,1.23-2.58,2.58-4.31,3.85Z" class="cls-1"/><path d="m231.67,18.12h-5.31c-.11,3.31-.98,5.53-4.6,7.4l-1.44-1.5c3.31-1.44,4.02-3,4.11-5.9h-6.15v-1.71h13.37v1.71Zm-1.81-3.9h-9.76v-1.71h9.76v1.71Z" class="cls-1"/><path d="m237.72,19.76l-1.48.63c-.23-.87-.89-2.42-1.44-3.24l1.45-.65c.56.9,1.15,2.27,1.47,3.26Zm7-3.24c-.63,4.06-3.08,7.42-6.69,8.92l-1.08-1.48c3.56-1.29,5.53-4.06,6.06-7.79l1.71.35Zm-5.48,3.24c-.21-.89-.82-2.47-1.32-3.34l1.45-.58c.52.92,1.06,2.31,1.36,3.31l-1.48.61Z" class="cls-1"/><path d="m259.96,14.54c-1.27,5.48-3.84,8.94-8.69,10.97l-1.26-1.55c4.64-1.68,6.84-4.9,7.61-8.42h-4.81c-1.13,1.66-2.48,3.26-3.81,4.32l-1.45-1.18c2.34-1.74,4.5-4.95,5.42-7.27l1.79.65c-.26.58-.56,1.19-.92,1.82h4.74l1.37.66Z" class="cls-1"/><path d="m263.49,17.46l-1.03-1.52c2.42-.82,4.76-2.45,6.71-4.98h1.68c2.05,2.53,4.45,4.1,6.9,4.98l-1.11,1.53c-.74-.31-1.47-.66-2.19-1.1v.84h-8.65v-.95c-.76.47-1.52.87-2.31,1.19Zm-.18,1.08h13.53v1.58h-7.58c-.47,1.05-1.05,2.26-1.69,3.45l5.68-.37c-.53-.63-1.15-1.27-1.81-1.92l1.37-.87c1.74,1.61,3.05,3.13,3.94,4.56l-1.56.97c-.24-.45-.53-.89-.85-1.35-3.18.32-7.92.71-10.65.92l-.39-1.73,2.42-.11c.63-1.21,1.19-2.48,1.61-3.55h-4.02v-1.58Zm3.42-2.9h6.6c-1.15-.81-2.24-1.81-3.34-3.08-1.05,1.27-2.14,2.27-3.26,3.08Z" class="cls-1"/><path d="m283.77,19.79v6.11h-1.77v-5.06c-.53.5-1.08.95-1.68,1.37l-1.03-1.42c1.98-1.29,3.66-3.31,4.64-5.56h-4.24v-1.6h2.31v-2.68h1.77v2.68h1.34l1.03.44c-.45,1.47-1.13,2.89-1.98,4.16.92.89,1.89,1.84,2.47,2.48l-1.26,1.16c-.39-.56-.97-1.32-1.6-2.08Zm10.73,4.08v1.63h-9.27v-1.63h3.86v-6.23h-2.94v-1.63h2.94v-5.06h1.81v5.06h2.98v1.63h-2.98v6.23h3.61Z" class="cls-1"/><path d="m135.96,5.31c.09-.05.16-.11.22-.18.06-.07.11-.15.14-.23.03-.09.05-.18.05-.27s-.01-.18-.04-.28c-.03-.1-.08-.19-.15-.26-.07-.08-.17-.14-.28-.19-.12-.05-.27-.07-.45-.07h-1.01v2.83h.45v-1.21h.36l.7,1.21h.56l-.79-1.26c.09-.01.17-.04.24-.08Zm-1.06-1.08h.45c.07,0,.14,0,.21.02.07.01.13.03.18.06.05.03.09.07.12.12.03.05.05.12.05.21s-.02.16-.05.21c-.03.05-.07.09-.12.12-.05.03-.11.05-.18.06-.07.01-.14.02-.21.02h-.45v-.81Z" class="cls-1"/><path d="m135.33,2.75c-1.39,0-2.51,1.13-2.51,2.51s1.13,2.51,2.51,2.51,2.51-1.13,2.51-2.51-1.13-2.51-2.51-2.51Zm0,4.64c-1.17,0-2.13-.96-2.13-2.13s.96-2.13,2.13-2.13,2.13.96,2.13,2.13-.96,2.13-2.13,2.13Z" class="cls-1"/><polygon points="75.51 22.48 54.86 1.83 54.86 33.8 59.93 33.8 59.93 14.07 80.58 34.73 80.58 2.75 75.51 2.75 75.51 22.48" class="cls-1"/><path d="m100.43,16.84c1.11-1.47,1.77-3.31,1.77-5.29,0-4.8-3.86-8.7-8.63-8.79h0s-6.95,0-6.95,0v31.05h9.19c5.03,0,9.11-4.09,9.11-9.11,0-3.34-1.81-6.27-4.5-7.85Zm-8.73-9.32h1.71c2.22,0,4.03,1.81,4.03,4.03s-1.81,4.03-4.03,4.03h-1.71V7.52Zm4.12,21.52h-4.12v-8.7h4.12c2.4,0,4.35,1.95,4.35,4.35s-1.95,4.35-4.35,4.35Z" class="cls-1"/><polygon points="134.92 33.8 117.95 16.84 132.04 2.75 124.86 2.75 114.21 13.4 114.21 2.75 109.14 2.75 109.14 33.8 114.21 33.8 114.21 20.27 127.75 33.8 134.92 33.8" class="cls-1"/></g>
    </svg>
  </g>
</svg>
