<svg xmlns="http://www.w3.org/2000/svg" viewBox="0 0 100 100" role="img" aria-hidden="true">
  <g transform="translate(8.3333 40.3101) scale(0.484496)">
    <svg x="0" y="0" width="172" height="40" viewBox="0 0 172 40">

<g clip-path="url(#clip0_5531_14461)">
<path d="M121.693 15.2373C121.985 15.2498 122.274 15.1746 122.523 15.0215C122.772 14.8684 122.969 14.6445 123.089 14.3785C123.209 14.1125 123.246 13.8167 123.197 13.5293C123.147 13.2418 123.012 12.9759 122.809 12.7658C122.606 12.5557 122.345 12.411 122.059 12.3505C121.773 12.29 121.475 12.3163 121.204 12.4262C120.934 12.536 120.702 12.7243 120.54 12.9668C120.377 13.2092 120.291 13.4947 120.292 13.7865C120.28 13.9757 120.308 14.1653 120.373 14.3433C120.438 14.5213 120.54 14.6838 120.672 14.8203C120.804 14.9568 120.963 15.0644 121.138 15.1362C121.314 15.208 121.503 15.2425 121.693 15.2373ZM64.3652 14.8087C64.5105 14.8097 64.6544 14.7809 64.788 14.7241C64.9216 14.6673 65.0421 14.5837 65.1421 14.4786C65.242 14.3734 65.3192 14.2489 65.369 14.1127C65.4188 13.9765 65.44 13.8316 65.4313 13.6869C65.443 13.5384 65.4237 13.3891 65.3744 13.2485C65.3252 13.1079 65.2472 12.979 65.1453 12.8701C65.0435 12.7613 64.92 12.6747 64.7828 12.6161C64.6456 12.5574 64.4977 12.5279 64.3485 12.5294C64.1985 12.5306 64.0502 12.5612 63.912 12.6196C63.7739 12.6779 63.6486 12.7628 63.5434 12.8695C63.4381 12.9762 63.355 13.1025 63.2986 13.2412C63.2423 13.38 63.2139 13.5285 63.215 13.6782C63.2162 13.8279 63.2469 13.9759 63.3053 14.1138C63.3638 14.2516 63.4489 14.3767 63.5558 14.4817C63.6626 14.5868 63.7892 14.6698 63.9282 14.726C64.0672 14.7822 64.216 14.8106 64.366 14.8094L64.3652 14.8087ZM68.417 19.4773C68.417 22.1905 67.2253 23.348 65.5828 23.348C63.7957 23.348 62.6222 22.1541 62.6222 19.4773V15.726H61.0536V19.3687C61.0536 23.1132 63.003 24.6324 65.6384 24.6324C68.13 24.6324 70.007 23.2211 70.007 19.4409V15.726H68.417V19.4773ZM77.2981 21.2519C77.301 21.5192 77.2498 21.7843 77.1475 22.0312C77.0452 22.2782 76.894 22.5021 76.7029 22.6893C76.5118 22.8765 76.2848 23.0233 76.0355 23.1208C75.7862 23.2184 75.5197 23.2646 75.252 23.2568H74.7601V13.012H73.1763V23.2568H70.9604V24.6301H76.028C76.028 24.6301 78.7693 24.1741 78.7693 21.4609V13.0113H77.2913L77.2981 21.2519ZM97.9341 14.8087C98.0793 14.8097 98.2232 14.7809 98.3568 14.7241C98.4904 14.6673 98.6109 14.5837 98.7109 14.4786C98.8108 14.3734 98.8881 14.2489 98.9378 14.1127C98.9876 13.9765 99.0088 13.8316 99.0001 13.6869C99.0119 13.5384 98.9925 13.3891 98.9433 13.2485C98.894 13.1079 98.816 12.979 98.7142 12.8701C98.6123 12.7613 98.4889 12.6747 98.3517 12.6161C98.2145 12.5574 98.0666 12.5279 97.9173 12.5294C97.7673 12.5306 97.619 12.5612 97.4809 12.6196C97.3427 12.6779 97.2175 12.7628 97.1122 12.8695C97.007 12.9762 96.9238 13.1025 96.8675 13.2412C96.8111 13.38 96.7827 13.5285 96.7839 13.6782C96.785 13.8279 96.8157 13.9759 96.8742 14.1138C96.9326 14.2516 97.0177 14.3767 97.1246 14.4817C97.2315 14.5868 97.358 14.6698 97.4971 14.726C97.6361 14.7822 97.7848 14.8106 97.9348 14.8094L97.9341 14.8087ZM66.7296 14.8087C66.8748 14.8097 67.0187 14.7809 67.1523 14.7241C67.286 14.6673 67.4065 14.5837 67.5064 14.4786C67.6064 14.3734 67.6836 14.2489 67.7334 14.1127C67.7831 13.9765 67.8043 13.8316 67.7957 13.6869C67.8074 13.5384 67.7881 13.3891 67.7388 13.2485C67.6896 13.1079 67.6116 12.979 67.5097 12.8701C67.4078 12.7613 67.2844 12.6747 67.1472 12.6161C67.01 12.5574 66.8621 12.5279 66.7129 12.5294C66.4099 12.5318 66.1203 12.6541 65.9078 12.8695C65.6952 13.0849 65.5771 13.3758 65.5794 13.6782C65.5817 13.9805 65.7043 14.2696 65.9201 14.4817C66.136 14.6939 66.4274 14.8117 66.7304 14.8094L66.7296 14.8087ZM118.68 15.2388C118.972 15.2513 119.262 15.1761 119.51 15.023C119.759 14.87 119.956 14.646 120.076 14.38C120.197 14.114 120.234 13.8182 120.184 13.5308C120.134 13.2433 119.999 12.9774 119.796 12.7673C119.594 12.5572 119.332 12.4126 119.046 12.352C118.76 12.2915 118.463 12.3178 118.192 12.4277C117.921 12.5375 117.69 12.7258 117.527 12.9683C117.365 13.2107 117.279 13.4963 117.28 13.788C117.268 13.9771 117.296 14.1667 117.361 14.3445C117.427 14.5224 117.529 14.6847 117.66 14.8211C117.792 14.9575 117.951 15.0649 118.127 15.1366C118.303 15.2082 118.491 15.2426 118.681 15.2373L118.68 15.2388ZM126.365 28.6072C126.657 28.6195 126.946 28.5443 127.195 28.3912C127.443 28.2381 127.64 28.0142 127.76 27.7483C127.88 27.4824 127.917 27.1868 127.867 26.8996C127.817 26.6123 127.682 26.3466 127.48 26.1367C127.277 25.9267 127.016 25.7823 126.73 25.7218C126.444 25.6614 126.147 25.6878 125.876 25.7976C125.606 25.9074 125.374 26.0956 125.212 26.3379C125.049 26.5802 124.963 26.8656 124.965 27.1571C124.953 27.3462 124.98 27.5357 125.046 27.7136C125.111 27.8914 125.213 28.0537 125.345 28.19C125.477 28.3263 125.636 28.4337 125.812 28.5053C125.987 28.5768 126.176 28.611 126.366 28.6057L126.365 28.6072ZM123.354 28.6072C123.645 28.6195 123.934 28.5443 124.183 28.3912C124.432 28.2381 124.629 28.0142 124.748 27.7483C124.868 27.4824 124.906 27.1868 124.856 26.8996C124.806 26.6123 124.671 26.3466 124.468 26.1367C124.265 25.9267 124.004 25.7823 123.718 25.7218C123.433 25.6614 123.135 25.6878 122.865 25.7976C122.594 25.9074 122.363 26.0956 122.2 26.3379C122.038 26.5802 121.952 26.8656 121.953 27.1571C121.941 27.3462 121.969 27.5357 122.034 27.7136C122.1 27.8914 122.202 28.0537 122.334 28.19C122.465 28.3263 122.624 28.4337 122.8 28.5053C122.976 28.5768 123.165 28.611 123.354 28.6057L123.354 28.6072ZM99.0961 20.5246C99.0961 22.2247 98.5364 23.3283 97.1642 23.3283C96.6746 23.3316 96.1973 23.1752 95.805 22.8829C96.1859 22.2578 96.4267 21.5577 96.5109 20.8309V19.5602C96.5109 19.5602 96.3487 15.6477 92.6053 15.441C92.0441 15.4279 91.4836 15.4872 90.9376 15.6173C89.6155 15.8707 88.3973 16.5069 87.4349 17.4466V15.6523H85.9538V23.2576H84.7926C84.5195 23.2736 84.2461 23.2335 83.9893 23.1396C83.7325 23.0458 83.4978 22.9002 83.2998 22.7119C83.1018 22.5237 82.9446 22.2968 82.8382 22.0454C82.7317 21.7939 82.6782 21.5234 82.681 21.2504V13.0113H81.2037V21.4617C81.2037 24.1757 83.945 24.6309 83.945 24.6309H87.4288V23.1519C87.4288 23.1519 88.6547 24.6013 89.9622 24.6309H92.7035C93.6368 24.6039 94.5283 24.239 95.2118 23.6041C95.5242 23.9386 95.9042 24.2031 96.3266 24.3801C96.749 24.5571 97.2042 24.6426 97.6622 24.6309C99.3596 24.6309 100.659 23.5996 100.659 20.7959V15.6773H99.0885L99.0961 20.5246ZM94.9278 20.4053C94.9278 20.4053 94.9163 23.006 92.4994 23.3632H89.966C89.3214 23.3292 88.7107 23.0647 88.2455 22.6182C87.7802 22.1716 87.4917 21.5727 87.4326 20.9312V19.9827C87.4326 19.9827 87.5666 18.3381 89.7551 17.4481C90.6948 17.0632 91.6959 16.8486 92.7111 16.8143C92.7111 16.8143 94.8303 16.8553 94.9278 19.6658V20.4053ZM129.659 20.6166V15.5466H127.019V20.7222C127.01 22.4064 126.175 22.2012 126.175 22.2012C125.435 22.2217 125.541 20.7222 125.541 20.7222V15.5466H122.902V16.9549C122.572 16.4978 122.132 16.1302 121.624 15.8853C121.115 15.6405 120.553 15.5262 119.989 15.5527C118.063 15.5527 116.316 17.2376 116.316 20.0633C116.316 23.288 118.372 24.8095 120.332 24.8095C120.913 24.822 121.486 24.6767 121.991 24.3892C122.213 24.2336 122.425 24.0624 122.623 23.877C122.821 23.6961 123.062 23.4415 123.371 23.1291C123.598 23.6132 123.967 24.0165 124.43 24.2849C124.893 24.5534 125.427 24.6741 125.96 24.6309C129.898 24.7403 129.662 20.6166 129.662 20.6166H129.659ZM122.653 20.8058C122.655 21.0005 122.637 21.1948 122.599 21.3857C122.52 21.7535 122.32 22.0841 122.03 22.324C121.739 22.564 121.377 22.6993 121 22.7081C119.811 22.7081 119.108 21.6935 119.108 20.1902C119.108 18.7774 119.739 17.7081 120.964 17.7081C121.354 17.7238 121.728 17.8698 122.025 18.1229C122.322 18.3759 122.526 18.7212 122.603 19.1034C122.639 19.2637 122.658 19.4277 122.657 19.5921L122.653 20.8058ZM163.544 13.012V24.8407H166.289V13.012H163.544ZM113.401 21.2687C113.284 23.4787 111.395 23.2606 111.395 23.2606C109.62 23.177 109.496 21.2687 109.496 21.2687V13.0113H107.912V21.2687C107.786 23.4233 106.012 23.2606 106.012 23.2606H105.167V13.012H103.583V23.2576H101.684V24.6309H106.645C107.204 24.6299 107.747 24.4424 108.187 24.0981C108.627 23.7538 108.939 23.2725 109.073 22.7309C109.301 23.2758 109.681 23.7441 110.168 24.0807C110.654 24.4173 111.227 24.6082 111.818 24.6309C114.707 24.6309 114.879 21.5673 114.879 21.5673V13.0113H113.401V21.2687ZM100.282 12.5287C100.054 12.517 99.8288 12.5735 99.6339 12.6907C99.4389 12.8079 99.2835 12.9805 99.1875 13.1865C99.0915 13.3925 99.0594 13.6223 99.0953 13.8467C99.1311 14.071 99.2332 14.2795 99.3886 14.4455C99.544 14.6114 99.7455 14.7273 99.9673 14.7782C100.189 14.8291 100.421 14.8127 100.634 14.7311C100.846 14.6495 101.029 14.5064 101.159 14.3203C101.29 14.1341 101.361 13.9133 101.365 13.6862C101.377 13.5376 101.358 13.3882 101.308 13.2475C101.259 13.1069 101.181 12.978 101.079 12.8691C100.977 12.7602 100.854 12.6737 100.716 12.6151C100.579 12.5565 100.431 12.5271 100.282 12.5287ZM162.066 13.012H159.428V20.9335C159.419 22.6177 158.583 22.4125 158.583 22.4125C157.843 22.433 157.95 20.9335 157.95 20.9335C157.95 20.9335 157.95 20.4053 157.945 20.4053C157.945 20.3399 157.955 20.2784 157.955 20.2115C157.955 17.3714 156.095 15.5991 153.442 15.5991C150.843 15.5991 148.73 17.2452 148.73 20.2297C148.73 20.442 148.742 20.6541 148.766 20.8651C148.777 20.9707 148.792 21.0764 148.81 21.1805C148.842 21.3662 148.832 21.5567 148.783 21.7384C148.733 21.9202 148.643 22.0888 148.521 22.2323C148.466 22.2927 148.399 22.3406 148.324 22.3729C148.248 22.4051 148.167 22.4209 148.086 22.4193C148.066 22.4193 148.046 22.4132 148.026 22.4125C147.441 22.4292 147.39 21.5537 147.388 21.1417C147.388 21.0992 147.402 20.4053 147.388 20.4053C147.403 20.1439 147.396 19.9827 147.396 19.9827C147.362 19.4032 147.253 18.8305 147.07 18.2796C146.925 17.8479 146.713 17.4416 146.441 17.0757C146.213 16.7717 145.939 16.5048 145.629 16.2846C145.357 16.0931 145.062 15.9373 144.75 15.821C144.482 15.7212 144.205 15.6474 143.923 15.6006C143.691 15.5567 143.458 15.5283 143.223 15.5155C143.1 15.5155 142.676 15.5466 142.566 15.5466C142.474 15.5466 141.642 15.6811 141.452 15.7313C141.121 15.8179 140.794 15.9145 140.471 16.0254C139.997 16.1809 139.538 16.3799 139.1 16.6197C138.832 16.7662 138.583 16.9448 138.359 17.1517C138.239 17.2621 138.136 17.3902 138.055 17.5317C138.027 17.5718 138.008 17.617 137.998 17.6647V15.552H135.36V20.9388C135.351 22.623 134.515 22.4178 134.515 22.4178C134.02 22.4315 133.906 21.7649 133.882 21.3219V15.5466H131.242V24.2106C131.178 24.8446 130.863 25.427 130.369 25.8298C129.874 26.2327 129.239 26.423 128.604 26.3591V28.4362H129.131C129.131 28.4362 133.091 28.7744 133.788 24.8346C133.959 24.857 134.132 24.8603 134.304 24.8445C134.832 24.8967 135.365 24.8203 135.856 24.6217C136.348 24.4231 136.785 24.1084 137.128 23.7045C137.674 24.2607 138.388 24.6231 139.16 24.7365C139.16 24.7365 140.063 24.8422 140.743 24.8422H142.855C143.856 24.8617 144.837 24.5622 145.656 23.9872C145.926 24.2849 146.262 24.5167 146.636 24.6649C147.011 24.8131 147.414 24.8738 147.816 24.8422C148.288 24.8839 148.763 24.8267 149.211 24.6742C149.66 24.5217 150.071 24.2774 150.419 23.9568C151.233 24.5507 152.219 24.8617 153.226 24.8422C154.278 24.8513 155.307 24.5386 156.175 23.9461C156.446 24.2561 156.785 24.4985 157.166 24.6538C157.547 24.8092 157.96 24.8732 158.37 24.8407C162.305 24.9501 162.065 20.8263 162.065 20.8263L162.066 13.012ZM144.644 20.4061C144.638 20.4967 144.627 20.587 144.612 20.6766C144.574 20.8964 144.516 21.1123 144.44 21.3219C144.352 21.6039 144.207 21.8645 144.012 22.087C143.818 22.3095 143.579 22.489 143.311 22.6139C143.164 22.6718 143.011 22.7101 142.854 22.7279H139.898C139.898 22.7355 137.937 22.9619 138.299 20.5999C138.314 20.0843 138.499 19.5881 138.827 19.1893C139.154 18.7904 139.605 18.5113 140.109 18.3959L141.869 17.8821L142.182 17.7909C142.477 17.6779 142.798 17.6474 143.11 17.7027C143.45 17.7775 143.762 17.9457 144.012 18.1884C144.171 18.3479 144.302 18.5331 144.4 18.7363C144.455 18.8451 144.5 18.9582 144.536 19.0745C144.594 19.2666 144.632 19.4643 144.648 19.6643C144.648 19.9128 144.663 20.1613 144.644 20.4061ZM153.352 22.8715C152.142 22.8715 151.565 21.6411 151.565 20.2305C151.565 19.0001 151.998 17.553 153.352 17.553C154.688 17.553 155.121 18.997 155.121 20.2487C155.121 21.695 154.543 22.8715 153.352 22.8715Z" fill="white"/>
<path d="M57.2314 11.6666C57.5956 11.6687 57.9534 11.7626 58.2716 11.9395C58.6058 12.1173 58.8808 12.3885 59.0628 12.72C59.2477 13.0406 59.3454 13.404 59.346 13.774C59.3467 14.144 59.2504 14.5077 59.0666 14.829C58.8862 15.1591 58.6148 15.4308 58.2846 15.6118C57.9635 15.7938 57.6006 15.8895 57.2314 15.8895C56.8622 15.8895 56.4994 15.7938 56.1783 15.6118C55.8475 15.4308 55.5754 15.1592 55.394 14.829C55.2096 14.5078 55.113 14.144 55.1138 13.7739C55.1146 13.4037 55.2128 13.0403 55.3986 12.72C55.5811 12.3886 55.8562 12.1174 56.1905 11.9395C56.509 11.7625 56.867 11.6687 57.2314 11.6666ZM57.2314 12.0162C56.9274 12.0178 56.6288 12.0963 56.3634 12.2442C56.0846 12.3934 55.8551 12.6198 55.7024 12.8963C55.5469 13.1631 55.4647 13.4661 55.4641 13.7747C55.4634 14.0834 55.5443 14.3867 55.6986 14.6542C55.8507 14.929 56.0778 15.1551 56.3535 15.3063C56.6204 15.4596 56.923 15.5404 57.2311 15.5404C57.5391 15.5404 57.8417 15.4596 58.1087 15.3063C58.3845 15.1555 58.6114 14.9293 58.7628 14.6542C58.9158 14.3863 58.9958 14.083 58.995 13.7746C58.9942 13.4662 58.9126 13.1634 58.7582 12.8963C58.6062 12.6196 58.3768 12.393 58.098 12.2442C57.8329 12.0967 57.5349 12.0183 57.2314 12.0162ZM56.3032 14.9468V12.6736H57.0852C57.2807 12.6649 57.4764 12.6862 57.6655 12.7367C57.7824 12.7766 57.883 12.8538 57.9518 12.9563C58.0205 13.0541 58.0577 13.1705 58.0584 13.29C58.059 13.3705 58.0435 13.4503 58.0129 13.5248C57.9823 13.5993 57.9372 13.667 57.8802 13.7239C57.7546 13.8499 57.586 13.9237 57.4081 13.9307C57.4793 13.9587 57.5449 13.9994 57.6015 14.0507C57.7293 14.1887 57.8422 14.3398 57.9381 14.5014L58.2153 14.9468H57.7668L57.565 14.5888C57.4701 14.3897 57.3398 14.2095 57.1804 14.0568C57.0936 13.9997 56.9902 13.973 56.8865 13.9808H56.6702V14.9468H56.3032ZM56.6702 13.6677H57.1165C57.2681 13.6829 57.4206 13.6496 57.552 13.5727C57.5898 13.5426 57.6199 13.5041 57.6402 13.4603C57.6604 13.4165 57.6701 13.3686 57.6685 13.3204C57.6696 13.256 57.6501 13.1929 57.6129 13.1403C57.5747 13.0867 57.5218 13.0453 57.4606 13.0209C57.3406 12.9885 57.2162 12.9754 57.0921 12.9822H56.674L56.6702 13.6677Z" fill="white"/>
<path d="M45.0804 19.45C44.8383 8.68329 35.8458 -0.233372 24.5907 -3.8694e-05C13.7864 0.233295 4.88583 9.10829 5.01107 20.225C5.12796 31.1416 14.0369 39.9916 25.0499 39.9916C30.3518 40 35.5703 37.925 39.4194 33.9333C43.3103 29.8916 45.214 25.0416 45.0887 19.4416L45.0804 19.45ZM24.4488 18.975V21.8166C24.4488 23.1166 23.5553 24.225 22.2862 24.4916C22.0942 24.5333 21.8938 24.55 21.7018 24.55C21.1173 24.55 20.5328 24.55 19.9484 24.55C19.2804 24.55 18.6876 24.35 18.1699 23.925C18.0948 23.8666 18.053 23.875 17.9862 23.925C17.4853 24.3333 16.9091 24.5416 16.2579 24.5416C15.6484 24.5416 15.0305 24.5416 14.421 24.5416C13.0183 24.5416 11.8326 23.45 11.7157 22.0583C11.7074 21.9583 11.699 21.8583 11.699 21.75V15.95C11.699 15.6333 11.8827 15.45 12.1917 15.4416C12.4755 15.4416 12.7594 15.4416 13.035 15.4416C13.3355 15.4416 13.5276 15.6333 13.5276 15.9416C13.5276 17.8833 13.5276 19.825 13.5276 21.7666C13.5276 22.3416 13.9451 22.7416 14.5379 22.7166C15.0806 22.6916 15.6233 22.7 16.1577 22.7166C16.7588 22.7333 17.168 22.3333 17.168 21.75C17.168 19.8166 17.168 17.875 17.168 15.9416C17.168 15.775 17.2181 15.6333 17.3517 15.525C17.4352 15.45 17.5437 15.4416 17.6439 15.4416C17.9278 15.4416 18.2117 15.4416 18.5039 15.4416C18.8045 15.4416 18.9965 15.6333 18.9965 15.9416V21.7666C18.9965 22.3416 19.414 22.7416 19.9985 22.7166C20.5412 22.6916 21.0839 22.7 21.6266 22.7166C22.2194 22.7416 22.6369 22.3416 22.6369 21.7583C22.6369 19.8166 22.6369 17.8833 22.6369 15.9416C22.6369 15.6333 22.8206 15.4416 23.1379 15.4416C23.4134 15.4416 23.6806 15.4416 23.9561 15.4416C24.2901 15.4416 24.4654 15.625 24.4654 15.95V18.9583L24.4488 18.975ZM37.9082 20.9166H32.7649C31.0449 20.9166 29.3332 20.9166 27.6132 20.9166C27.513 20.9166 27.4796 20.9416 27.488 21.0416C27.4963 21.2833 27.4796 21.5166 27.5464 21.75C27.7301 22.3416 28.2561 22.7333 28.8907 22.7333C30.3185 22.7333 31.7379 22.7333 33.1656 22.7333C33.8336 22.7333 34.5016 22.7333 35.1612 22.7333C35.6037 22.7333 35.9794 22.5833 36.2717 22.2416C36.3718 22.1333 36.4887 22.1 36.6641 22.1333C37.0315 22.2083 37.4155 22.2083 37.7829 22.1333C38.0918 22.0666 38.2922 22.3083 38.1837 22.5666C37.7078 23.65 36.8895 24.3083 35.7122 24.5166C35.5202 24.55 35.3198 24.5583 35.1194 24.5583C33.0237 24.5583 30.9363 24.5583 28.8406 24.5583C27.1456 24.5583 25.7429 23.225 25.6678 21.5416C25.6344 20.85 25.6594 20.15 25.6594 19.4583C25.6594 19.1 25.6427 18.7333 25.6678 18.375C25.768 17.0166 26.8117 15.825 28.1476 15.5416C28.3981 15.4916 28.6569 15.4666 28.9157 15.4666C31.0115 15.4666 33.1072 15.4666 35.2029 15.4666C35.7623 15.4666 36.2967 15.5833 36.781 15.875C37.8414 16.5 38.3924 17.425 38.4175 18.6583C38.4258 19.25 38.4175 19.8416 38.4175 20.4333C38.4175 20.75 38.2338 20.9333 37.9082 20.9333V20.9166Z" fill="white"/>
<path d="M35.2533 17.2749C33.1074 17.2749 30.9616 17.2749 28.8241 17.2749C28.2898 17.2749 27.7804 17.6416 27.5801 18.1416C27.4715 18.4166 27.4882 18.6999 27.4799 18.9832C27.4799 19.0749 27.5133 19.0916 27.5968 19.0916C29.0746 19.0916 30.5608 19.0916 32.0387 19.0916C33.0991 19.0916 34.1595 19.0916 35.2199 19.0916C35.6457 19.0916 36.0632 19.0916 36.489 19.0916C36.5808 19.0916 36.5975 19.0666 36.5892 18.9666C36.5808 18.8832 36.5808 18.8082 36.5892 18.7249C36.6476 17.9499 36.0214 17.2749 35.2533 17.2749Z" fill="white"/>
</g>
<defs>
<clipPath id="clip0_5531_14461">
<rect width="171.733" height="40" fill="white"/>
</clipPath>
</defs>

    </svg>
  </g>
</svg>
